<svg width="512" height="512" viewBox="0 0 512 512" fill="none" xmlns="http://www.w3.org/2000/svg">
  <rect width="512" height="512" rx="48" fill="#111111"/>
  <circle cx="168" cy="196" r="72" stroke="#C8F857" stroke-width="18" opacity="0.8"/>
  <circle cx="344" cy="316" r="96" stroke="#C8F857" stroke-width="18" opacity="0.5"/>
  <path d="M148 320C148 271.399 187.399 232 236 232H276C324.601 232 364 271.399 364 320V408C364 418.493 355.493 427 345 427H167C156.507 427 148 418.493 148 408V320Z" fill="#C8F857"/>
  <path d="M224 190C224 173.431 237.431 160 254 160H258C274.569 160 288 173.431 288 190V224C288 240.569 274.569 254 258 254H254C237.431 254 224 240.569 224 224V190Z" fill="#101010"/>
  <path d="M180 352C180 336.536 192.536 324 208 324H304C319.464 324 332 336.536 332 352V352C332 367.464 319.464 380 304 380H208C192.536 380 180 367.464 180 352V352Z" fill="#101010"/>
  <rect x="188" y="340" width="20" height="24" rx="10" fill="#C8F857"/>
  <rect x="304" y="340" width="20" height="24" rx="10" fill="#C8F857"/>
  <path d="M256 120C309.019 120 352 162.981 352 216" stroke="#C8F857" stroke-width="12" stroke-linecap="round" stroke-dasharray="20 16" opacity="0.6"/>
  <path d="M224 112C176.294 112 138 150.294 138 198" stroke="#C8F857" stroke-width="12" stroke-linecap="round" stroke-dasharray="20 16" opacity="0.3"/>
</svg>
